<svg id="visual" viewBox="0 0 1520 680" width="1520" height="680" xmlns="http://www.w3.org/2000/svg" xmlns:xlink="http://www.w3.org/1999/xlink" version="1.1"><rect x="0" y="0" width="1520" height="680" fill="#f9fafb"></rect><path d="M419 0L380 0L380 34L451 34L451 68L515 68L515 102L461 102L461 136L575 136L575 170L669 170L669 204L527 204L527 238L457 238L457 272L559 272L559 306L462 306L462 340L471 340L471 374L618 374L618 408L641 408L641 442L398 442L398 476L467 476L467 510L444 510L444 544L547 544L547 578L350 578L350 612L492 612L492 646L569 646L569 680L0 680L0 646L0 646L0 612L0 612L0 578L0 578L0 544L0 544L0 510L0 510L0 476L0 476L0 442L0 442L0 408L0 408L0 374L0 374L0 340L0 340L0 306L0 306L0 272L0 272L0 238L0 238L0 204L0 204L0 170L0 170L0 136L0 136L0 102L0 102L0 68L0 68L0 34L0 34L0 0L0 0Z" fill="#1b4dd5"></path><path d="M396 0L305 0L305 34L571 34L571 68L337 68L337 102L374 102L374 136L315 136L315 170L371 170L371 204L428 204L428 238L327 238L327 272L585 272L585 306L519 306L519 340L471 340L471 374L542 374L542 408L411 408L411 442L593 442L593 476L401 476L401 510L632 510L632 544L401 544L401 578L598 578L598 612L344 612L344 646L471 646L471 680L0 680L0 646L0 646L0 612L0 612L0 578L0 578L0 544L0 544L0 510L0 510L0 476L0 476L0 442L0 442L0 408L0 408L0 374L0 374L0 340L0 340L0 306L0 306L0 272L0 272L0 238L0 238L0 204L0 204L0 170L0 170L0 136L0 136L0 102L0 102L0 68L0 68L0 34L0 34L0 0L0 0Z" fill="#1a4bce"></path><path d="M309 0L341 0L341 34L332 34L332 68L506 68L506 102L347 102L347 136L572 136L572 170L331 170L331 204L477 204L477 238L414 238L414 272L388 272L388 306L302 306L302 340L563 340L563 374L438 374L438 408L292 408L292 442L428 442L428 476L525 476L525 510L471 510L471 544L480 544L480 578L286 578L286 612L300 612L300 646L504 646L504 680L0 680L0 646L0 646L0 612L0 612L0 578L0 578L0 544L0 544L0 510L0 510L0 476L0 476L0 442L0 442L0 408L0 408L0 374L0 374L0 340L0 340L0 306L0 306L0 272L0 272L0 238L0 238L0 204L0 204L0 170L0 170L0 136L0 136L0 102L0 102L0 68L0 68L0 34L0 34L0 0L0 0Z" fill="#1a4ac7"></path><path d="M307 0L427 0L427 34L420 34L420 68L417 68L417 102L445 102L445 136L396 136L396 170L333 170L333 204L386 204L386 238L320 238L320 272L488 272L488 306L288 306L288 340L309 340L309 374L265 374L265 408L392 408L392 442L425 442L425 476L475 476L475 510L270 510L270 544L441 544L441 578L291 578L291 612L356 612L356 646L316 646L316 680L0 680L0 646L0 646L0 612L0 612L0 578L0 578L0 544L0 544L0 510L0 510L0 476L0 476L0 442L0 442L0 408L0 408L0 374L0 374L0 340L0 340L0 306L0 306L0 272L0 272L0 238L0 238L0 204L0 204L0 170L0 170L0 136L0 136L0 102L0 102L0 68L0 68L0 34L0 34L0 0L0 0Z" fill="#1a48c0"></path><path d="M349 0L328 0L328 34L316 34L316 68L291 68L291 102L274 102L274 136L407 136L407 170L226 170L226 204L466 204L466 238L387 238L387 272L394 272L394 306L352 306L352 340L310 340L310 374L361 374L361 408L267 408L267 442L294 442L294 476L357 476L357 510L410 510L410 544L395 544L395 578L290 578L290 612L446 612L446 646L441 646L441 680L0 680L0 646L0 646L0 612L0 612L0 578L0 578L0 544L0 544L0 510L0 510L0 476L0 476L0 442L0 442L0 408L0 408L0 374L0 374L0 340L0 340L0 306L0 306L0 272L0 272L0 238L0 238L0 204L0 204L0 170L0 170L0 136L0 136L0 102L0 102L0 68L0 68L0 34L0 34L0 0L0 0Z" fill="#1a47b9"></path><path d="M377 0L253 0L253 34L310 34L310 68L211 68L211 102L273 102L273 136L300 136L300 170L290 170L290 204L317 204L317 238L267 238L267 272L341 272L341 306L333 306L333 340L232 340L232 374L235 374L235 408L268 408L268 442L226 442L226 476L314 476L314 510L387 510L387 544L418 544L418 578L349 578L349 612L240 612L240 646L257 646L257 680L0 680L0 646L0 646L0 612L0 612L0 578L0 578L0 544L0 544L0 510L0 510L0 476L0 476L0 442L0 442L0 408L0 408L0 374L0 374L0 340L0 340L0 306L0 306L0 272L0 272L0 238L0 238L0 204L0 204L0 170L0 170L0 136L0 136L0 102L0 102L0 68L0 68L0 34L0 34L0 0L0 0Z" fill="#1b45b2"></path><path d="M236 0L200 0L200 34L363 34L363 68L342 68L342 102L176 102L176 136L345 136L345 170L200 170L200 204L302 204L302 238L193 238L193 272L279 272L279 306L363 306L363 340L308 340L308 374L277 374L277 408L188 408L188 442L188 442L188 476L218 476L218 510L303 510L303 544L359 544L359 578L326 578L326 612L261 612L261 646L184 646L184 680L0 680L0 646L0 646L0 612L0 612L0 578L0 578L0 544L0 544L0 510L0 510L0 476L0 476L0 442L0 442L0 408L0 408L0 374L0 374L0 340L0 340L0 306L0 306L0 272L0 272L0 238L0 238L0 204L0 204L0 170L0 170L0 136L0 136L0 102L0 102L0 68L0 68L0 34L0 34L0 0L0 0Z" fill="#1b43ac"></path><path d="M209 0L193 0L193 34L267 34L267 68L253 68L253 102L228 102L228 136L213 136L213 170L287 170L287 204L216 204L216 238L308 238L308 272L289 272L289 306L210 306L210 340L201 340L201 374L163 374L163 408L268 408L268 442L154 442L154 476L202 476L202 510L159 510L159 544L301 544L301 578L195 578L195 612L189 612L189 646L181 646L181 680L0 680L0 646L0 646L0 612L0 612L0 578L0 578L0 544L0 544L0 510L0 510L0 476L0 476L0 442L0 442L0 408L0 408L0 374L0 374L0 340L0 340L0 306L0 306L0 272L0 272L0 238L0 238L0 204L0 204L0 170L0 170L0 136L0 136L0 102L0 102L0 68L0 68L0 34L0 34L0 0L0 0Z" fill="#1c41a5"></path><path d="M184 0L247 0L247 34L228 34L228 68L110 68L110 102L152 102L152 136L256 136L256 170L138 170L138 204L187 204L187 238L147 238L147 272L246 272L246 306L228 306L228 340L222 340L222 374L205 374L205 408L138 408L138 442L223 442L223 476L111 476L111 510L199 510L199 544L162 544L162 578L217 578L217 612L218 612L218 646L234 646L234 680L0 680L0 646L0 646L0 612L0 612L0 578L0 578L0 544L0 544L0 510L0 510L0 476L0 476L0 442L0 442L0 408L0 408L0 374L0 374L0 340L0 340L0 306L0 306L0 272L0 272L0 238L0 238L0 204L0 204L0 170L0 170L0 136L0 136L0 102L0 102L0 68L0 68L0 34L0 34L0 0L0 0Z" fill="#1c409e"></path><path d="M101 0L85 0L85 34L181 34L181 68L141 68L141 102L88 102L88 136L93 136L93 170L144 170L144 204L85 204L85 238L121 238L121 272L123 272L123 306L97 306L97 340L170 340L170 374L116 374L116 408L120 408L120 442L84 442L84 476L151 476L151 510L173 510L173 544L77 544L77 578L140 578L140 612L85 612L85 646L151 646L151 680L0 680L0 646L0 646L0 612L0 612L0 578L0 578L0 544L0 544L0 510L0 510L0 476L0 476L0 442L0 442L0 408L0 408L0 374L0 374L0 340L0 340L0 306L0 306L0 272L0 272L0 238L0 238L0 204L0 204L0 170L0 170L0 136L0 136L0 102L0 102L0 68L0 68L0 34L0 34L0 0L0 0Z" fill="#1d3e97"></path><path d="M112 0L70 0L70 34L94 34L94 68L126 68L126 102L102 102L102 136L115 136L115 170L119 170L119 204L96 204L96 238L129 238L129 272L153 272L153 306L103 306L103 340L55 340L55 374L102 374L102 408L129 408L129 442L150 442L150 476L148 476L148 510L78 510L78 544L84 544L84 578L120 578L120 612L64 612L64 646L121 646L121 680L0 680L0 646L0 646L0 612L0 612L0 578L0 578L0 544L0 544L0 510L0 510L0 476L0 476L0 442L0 442L0 408L0 408L0 374L0 374L0 340L0 340L0 306L0 306L0 272L0 272L0 238L0 238L0 204L0 204L0 170L0 170L0 136L0 136L0 102L0 102L0 68L0 68L0 34L0 34L0 0L0 0Z" fill="#1d3c91"></path><path d="M39 0L62 0L62 34L23 34L23 68L28 68L28 102L86 102L86 136L27 136L27 170L99 170L99 204L84 204L84 238L79 238L79 272L88 272L88 306L66 306L66 340L96 340L96 374L89 374L89 408L77 408L77 442L56 442L56 476L51 476L51 510L63 510L63 544L40 544L40 578L78 578L78 612L73 612L73 646L70 646L70 680L0 680L0 646L0 646L0 612L0 612L0 578L0 578L0 544L0 544L0 510L0 510L0 476L0 476L0 442L0 442L0 408L0 408L0 374L0 374L0 340L0 340L0 306L0 306L0 272L0 272L0 238L0 238L0 204L0 204L0 170L0 170L0 136L0 136L0 102L0 102L0 68L0 68L0 34L0 34L0 0L0 0Z" fill="#1e3a8a"></path></svg>