<svg id="visual" viewBox="0 0 1520 680" width="1520" height="680" xmlns="http://www.w3.org/2000/svg" xmlns:xlink="http://www.w3.org/1999/xlink" version="1.1"><rect x="0" y="0" width="1520" height="680" fill="#f9fafb"></rect><path d="M878 0L881.2 16.2C884.3 32.3 890.7 64.7 895.2 97C899.7 129.3 902.3 161.7 897.5 194C892.7 226.3 880.3 258.7 857 291.2C833.7 323.7 799.3 356.3 795.3 388.8C791.3 421.3 817.7 453.7 868.7 486C919.7 518.3 995.3 550.7 1015 583C1034.7 615.3 998.3 647.7 980.2 663.8L962 680L0 680L0 663.8C0 647.7 0 615.3 0 583C0 550.7 0 518.3 0 486C0 453.7 0 421.3 0 388.8C0 356.3 0 323.7 0 291.2C0 258.7 0 226.3 0 194C0 161.7 0 129.3 0 97C0 64.7 0 32.3 0 16.2L0 0Z" fill="#0d40cc"></path><path d="M559 0L613 16.2C667 32.3 775 64.7 803.2 97C831.3 129.3 779.7 161.7 762.2 194C744.7 226.3 761.3 258.7 766 291.2C770.7 323.7 763.3 356.3 750.2 388.8C737 421.3 718 453.7 695.2 486C672.3 518.3 645.7 550.7 624.7 583C603.7 615.3 588.3 647.7 580.7 663.8L573 680L0 680L0 663.8C0 647.7 0 615.3 0 583C0 550.7 0 518.3 0 486C0 453.7 0 421.3 0 388.8C0 356.3 0 323.7 0 291.2C0 258.7 0 226.3 0 194C0 161.7 0 129.3 0 97C0 64.7 0 32.3 0 16.2L0 0Z" fill="#0e3fbc"></path><path d="M614 0L627.2 16.2C640.3 32.3 666.7 64.7 666 97C665.3 129.3 637.7 161.7 643.3 194C649 226.3 688 258.7 677.8 291.2C667.7 323.7 608.3 356.3 593.2 388.8C578 421.3 607 453.7 603 486C599 518.3 562 550.7 575.3 583C588.7 615.3 652.3 647.7 684.2 663.8L716 680L0 680L0 663.8C0 647.7 0 615.3 0 583C0 550.7 0 518.3 0 486C0 453.7 0 421.3 0 388.8C0 356.3 0 323.7 0 291.2C0 258.7 0 226.3 0 194C0 161.7 0 129.3 0 97C0 64.7 0 32.3 0 16.2L0 0Z" fill="#133eab"></path><path d="M517 0L482.3 16.2C447.7 32.3 378.3 64.7 360.2 97C342 129.3 375 161.7 370.2 194C365.3 226.3 322.7 258.7 306.3 291.2C290 323.7 300 356.3 312.7 388.8C325.3 421.3 340.7 453.7 336.5 486C332.3 518.3 308.7 550.7 319.3 583C330 615.3 375 647.7 397.5 663.8L420 680L0 680L0 663.8C0 647.7 0 615.3 0 583C0 550.7 0 518.3 0 486C0 453.7 0 421.3 0 388.8C0 356.3 0 323.7 0 291.2C0 258.7 0 226.3 0 194C0 161.7 0 129.3 0 97C0 64.7 0 32.3 0 16.2L0 0Z" fill="#193c9b"></path><path d="M317 0L309.8 16.2C302.7 32.3 288.3 64.7 284.7 97C281 129.3 288 161.7 269.8 194C251.7 226.3 208.3 258.7 208.2 291.2C208 323.7 251 356.3 262.8 388.8C274.7 421.3 255.3 453.7 236 486C216.7 518.3 197.3 550.7 193.2 583C189 615.3 200 647.7 205.5 663.8L211 680L0 680L0 663.8C0 647.7 0 615.3 0 583C0 550.7 0 518.3 0 486C0 453.7 0 421.3 0 388.8C0 356.3 0 323.7 0 291.2C0 258.7 0 226.3 0 194C0 161.7 0 129.3 0 97C0 64.7 0 32.3 0 16.2L0 0Z" fill="#1e3a8a"></path></svg>